<svg xmlns="http://www.w3.org/2000/svg" width="233" height="63.077" viewBox="0 0 233 63.077">
  <g id="Grupo_17720" data-name="Grupo 17720" transform="translate(-85 -666.823)">
    <text id="Con_el_respaldo_de:" data-name="Con el respaldo de:" transform="translate(136 678.823)" fill="#000425" font-size="11" font-family="OpenSans-Semibold, Open Sans" font-weight="600"><tspan x="-50.588" y="0">Con el respaldo de:</tspan></text>
    <g id="Grupo_10085" data-name="Grupo 10085" transform="translate(86 697.81)">
      <path id="Trazado_1806" data-name="Trazado 1806" d="M2.651,0A2.667,2.667,0,0,0,0,2.675V19.81H17.16a2.647,2.647,0,0,0,2.651-2.651V0H2.651ZM15.172,14.3,4.615,16.189V5.538L15.172,3.645Z" fill="#000425" fill-rule="evenodd"/>
      <path id="Trazado_1807" data-name="Trazado 1807" d="M134.729,15.369c-3.124,0-5.325,2.249-5.349,5.893a5.284,5.284,0,0,0,5.349,5.373,4.971,4.971,0,0,0,3.2-.734V24.056a6.226,6.226,0,0,1-2.674.544,3.03,3.03,0,0,1-3.243-2.367l-.024-.142h1.965a9.011,9.011,0,0,0,3.929-.568,2,2,0,0,0,1.16-2.012,4.111,4.111,0,0,0-4.308-4.142m1.278,4.781a8.4,8.4,0,0,1-2.627.26h-1.373l.024-.142.024-.379a2.5,2.5,0,0,1,2.438-2.462,2.6,2.6,0,0,1,1.609.45,1.621,1.621,0,0,1,.615,1.325.92.92,0,0,1-.71.947m4.4-.568v6.864h2.556v-6.39a2.87,2.87,0,0,1,.521-1.893A1.928,1.928,0,0,1,145,17.57a5.511,5.511,0,0,1,.686.047V15.606a2.867,2.867,0,0,0-1.3-.284c-2.84.047-3.953,2.083-3.976,4.26M106.8,26.47h2.556V12.6H106.8Zm9.42-11.1a4.511,4.511,0,0,0-4.9,4.639V26.47h2.556v-6.3a2.875,2.875,0,0,1,.592-1.893,1.975,1.975,0,0,1,1.562-.686,2.149,2.149,0,0,1,1.728.686,3.2,3.2,0,0,1,.639,2.106V26.47h2.533V20.15a4.539,4.539,0,0,0-4.71-4.781m9.16-2.769h-2.509V22.612c0,2.556,1.3,4.047,4.071,4.047a2.215,2.215,0,0,0,2.177-.994V24.079a4.515,4.515,0,0,1-1.846.284,1.809,1.809,0,0,1-1.4-.5,2.26,2.26,0,0,1-.5-1.609V17.594H127.6c1.089,0,1.538-.686,1.538-1.183V15.393H125.38Z" transform="translate(-81.522 -9.618)" fill="#000425"/>
      <path id="Trazado_1808" data-name="Trazado 1808" d="M361.3,28.489v6.888h2.556v-6.39a2.758,2.758,0,0,1,.521-1.87,1.929,1.929,0,0,1,1.515-.592,6.3,6.3,0,0,1,.71.047V24.56a2.817,2.817,0,0,0-1.3-.26c-2.864,0-4,2.012-4,4.189" transform="translate(-275.786 -18.549)" fill="#000425"/>
      <path id="Trazado_1809" data-name="Trazado 1809" d="M318.236,24.2c-3.361,0-5.136,2.6-5.136,5.87,0,2.888,1.8,5.325,4.923,5.325,3.337,0,5.136-2.438,5.136-5.7,0-2.888-1.8-5.491-4.923-5.491m0,8.876c-1.775,0-2.532-1.183-2.532-3.385,0-1.846.781-3.172,2.32-3.172,1.751,0,2.533,1.325,2.533,3.574,0,1.822-.757,2.982-2.32,2.982" transform="translate(-238.994 -18.472)" fill="#000425"/>
      <path id="Trazado_1810" data-name="Trazado 1810" d="M276.487,30.525l.024.142a3.093,3.093,0,0,0,3.03,2.722,5.959,5.959,0,0,0,2.675-.544V34.6a4.94,4.94,0,0,1-3.2.97,5.372,5.372,0,0,1-5.42-5.373c0-3.645,2.272-5.87,5.4-5.893h.024a4.818,4.818,0,0,1,3.2.947V27a5.959,5.959,0,0,0-2.675-.544,3.073,3.073,0,0,0-3.03,2.7,5.011,5.011,0,0,0-.024,1.373" transform="translate(-208.843 -18.549)" fill="#000425"/>
      <path id="Trazado_1811" data-name="Trazado 1811" d="M392.031,24.7c-3.692,0-5.231,2.509-5.231,6.13v6.059a1.824,1.824,0,0,0,1.823,1.893h.8V34.5a2.936,2.936,0,0,0,2.627,1.467c3.053,0,4.71-2.391,4.71-5.893.024-2.746-1.964-5.373-4.734-5.373m-.047,9.018c-1.562,0-2.58-1.231-2.58-3.432,0-1.893.781-3.2,2.225-3.2,1.657,0,2.485,1.112,2.485,3.692,0,1.751-.876,2.935-2.13,2.935" transform="translate(-295.25 -18.854)" fill="#000425"/>
    </g>
    <g id="Grupo_10287" data-name="Grupo 10287" transform="translate(247.22 691.476)">
      <path id="Sustracción_2" data-name="Sustracción 2" d="M42,13.708H0V0H42V13.708ZM21.909,1.687,17.833,12.019h2.4l.842-2.31h4.036l.821,2.311h2.464L24.35,1.687Zm7.449,0V12.019h8.2V10.108H31.732V7.578h5.239V5.809H31.714V3.6h5.721V1.687Zm-20.485,0V12.019h2.375v-3.7h2.5a4.916,4.916,0,0,0,1.725-.281A3.27,3.27,0,0,0,16.634,7.3a2.7,2.7,0,0,0,.651-1.064,3.5,3.5,0,0,0,.21-1.225,4.043,4.043,0,0,0-.21-1.23,2.948,2.948,0,0,0-.651-1.066,3.215,3.215,0,0,0-1.157-.743,4.907,4.907,0,0,0-1.725-.281Zm-4.482,0V12.019h2.38V1.687ZM24.5,8.041H21.7l1.408-3.8h.017l1.367,3.8ZM13.1,6.553H11.248v-3.1H13.1a4.819,4.819,0,0,1,.774.061,1.767,1.767,0,0,1,.672.218,1.232,1.232,0,0,1,.464.464,1.758,1.758,0,0,1,.17.807,1.485,1.485,0,0,1-.17.8,1.383,1.383,0,0,1-.464.463,2.2,2.2,0,0,1-.672.218A4.826,4.826,0,0,1,13.1,6.553Z" transform="translate(28.784 18.818)" fill="#000425"/>
      <g id="Grupo_215" data-name="Grupo 215" transform="translate(28.78 0.066)">
        <g id="Grupo_214" data-name="Grupo 214">
          <path id="Trazado_118" data-name="Trazado 118" d="M170.869,18.469h-4.311V16.7h7.55v1.769l-4.669,5.025h4.984v1.769H166.2V23.493Z" transform="translate(-166.2 -13.424)" fill="#000425"/>
          <path id="Trazado_119" data-name="Trazado 119" d="M210.871,22.413a2.293,2.293,0,0,0,1.6.523,2.224,2.224,0,0,0,1.283-.362,1.509,1.509,0,0,0,.652-.744h2.166a3.932,3.932,0,0,1-1.6,2.211,4.849,4.849,0,0,1-2.608.663,5.215,5.215,0,0,1-1.914-.322,3.842,3.842,0,0,1-1.43-.925,3.914,3.914,0,0,1-.9-1.427A5.079,5.079,0,0,1,207.8,20.2a4.534,4.534,0,0,1,.337-1.789,4.131,4.131,0,0,1,2.376-2.372,4.687,4.687,0,0,1,1.872-.342,4.47,4.47,0,0,1,2,.422,3.949,3.949,0,0,1,1.388,1.126,4.534,4.534,0,0,1,.778,1.628,5.741,5.741,0,0,1,.168,1.909h-6.457A2.4,2.4,0,0,0,210.871,22.413Zm2.8-4.522a1.8,1.8,0,0,0-1.346-.462,2.394,2.394,0,0,0-.988.181,2.09,2.09,0,0,0-.631.462,1.726,1.726,0,0,0-.337.6,2,2,0,0,0-.105.563h4A2.624,2.624,0,0,0,213.668,17.891Z" transform="translate(-199.051 -12.625)" fill="#000425"/>
          <path id="Trazado_120" data-name="Trazado 120" d="M264.649,24.926a2.992,2.992,0,0,1-.631,1.226,3.686,3.686,0,0,1-1.409.965,6.881,6.881,0,0,1-3.807.241,4.16,4.16,0,0,1-1.241-.482,2.812,2.812,0,0,1-.925-.844,2.23,2.23,0,0,1-.421-1.246h2.44a1.34,1.34,0,0,0,.673.925,2.382,2.382,0,0,0,1.157.261,1.807,1.807,0,0,0,1.514-.6,2.361,2.361,0,0,0,.463-1.507V22.735h-.042a2.456,2.456,0,0,1-1.136,1,3.715,3.715,0,0,1-1.556.322A4.1,4.1,0,0,1,258,23.72a3.362,3.362,0,0,1-1.2-.925,3.7,3.7,0,0,1-.694-1.367,6.16,6.16,0,0,1-.21-1.668,5.248,5.248,0,0,1,.252-1.608,4.333,4.333,0,0,1,.736-1.367,3.5,3.5,0,0,1,2.86-1.286,3.457,3.457,0,0,1,1.556.322,2.532,2.532,0,0,1,1.115,1.065h.042V15.741H264.8V23.76A6.482,6.482,0,0,1,264.649,24.926Zm-3.386-2.854a1.832,1.832,0,0,0,.652-.523,2.837,2.837,0,0,0,.4-.744,3.107,3.107,0,0,0,.126-.884,5.1,5.1,0,0,0-.105-1,2.566,2.566,0,0,0-.337-.844,1.9,1.9,0,0,0-.631-.583,2.186,2.186,0,0,0-1.009-.221,1.729,1.729,0,0,0-.883.2,2.015,2.015,0,0,0-.631.543,1.94,1.94,0,0,0-.357.784,3.376,3.376,0,0,0-.105.925,4.616,4.616,0,0,0,.105.925,2.218,2.218,0,0,0,.336.824,1.9,1.9,0,0,0,.61.6,1.729,1.729,0,0,0,.946.241A2.479,2.479,0,0,0,261.263,22.072Z" transform="translate(-237.035 -12.465)" fill="#000425"/>
          <path id="Trazado_121" data-name="Trazado 121" d="M307.571,22.413a2.293,2.293,0,0,0,1.6.523,2.224,2.224,0,0,0,1.283-.362,1.509,1.509,0,0,0,.652-.744h2.166a3.931,3.931,0,0,1-1.6,2.211,4.849,4.849,0,0,1-2.608.663,5.215,5.215,0,0,1-1.914-.322,3.84,3.84,0,0,1-1.43-.925,3.912,3.912,0,0,1-.9-1.427A5.079,5.079,0,0,1,304.5,20.2a4.533,4.533,0,0,1,.337-1.789,4.131,4.131,0,0,1,2.376-2.372,4.688,4.688,0,0,1,1.872-.342,4.47,4.47,0,0,1,2,.422,3.95,3.95,0,0,1,1.388,1.126,4.536,4.536,0,0,1,.778,1.628,5.74,5.74,0,0,1,.168,1.909h-6.457A2.305,2.305,0,0,0,307.571,22.413Zm2.776-4.522A1.8,1.8,0,0,0,309,17.428a2.394,2.394,0,0,0-.988.181,2.089,2.089,0,0,0-.631.462,1.724,1.724,0,0,0-.337.6,2,2,0,0,0-.105.563h4A2.462,2.462,0,0,0,310.347,17.891Z" transform="translate(-275.414 -12.625)" fill="#000425"/>
          <path id="Trazado_122" data-name="Trazado 122" d="M356.661.4V12.218H354.2V.4Z" transform="translate(-314.661 -0.4)" fill="#000425"/>
        </g>
      </g>
    </g>
    <g id="Grupo_10259" data-name="Grupo 10259" transform="translate(-788 -683)">
      <g id="Grupo_10258" data-name="Grupo 10258" transform="translate(1006 1367.963)">
        <g id="Grupo_10256" data-name="Grupo 10256" transform="translate(1.264 35.065)">
          <g id="Grupo_10255" data-name="Grupo 10255">
            <g id="Grupo_10254" data-name="Grupo 10254">
              <path id="Trazado_5421" data-name="Trazado 5421" d="M1.679,53.087H2.39a.077.077,0,0,0,.079-.079v-4.5a.077.077,0,0,0-.079-.079H1.6V47.243H4.364c.079,0,.079,0,.079.079v5.607a.077.077,0,0,0,.079.079h.711v1.106H1.679Zm.711-7.661A1.045,1.045,0,0,1,3.416,44.4a1.027,1.027,0,1,1,0,2.053A1.045,1.045,0,0,1,2.39,45.427Z" transform="translate(-1.6 -44.4)" fill="#000425"/>
              <path id="Trazado_5422" data-name="Trazado 5422" d="M14.429,53.361a.077.077,0,0,1-.079-.079v-7.5c0-.079,0-.079-.079-.079H11.507v1.106h.79a.077.077,0,0,1,.079.079v1.422a2.346,2.346,0,0,0-1.974-.869c-1.343,0-3,1.027-3,3.633s1.5,3.475,2.922,3.475a2.958,2.958,0,0,0,2.132-.869v.395a.423.423,0,0,0,.395.395h2.369V53.361Zm-3.554.079c-.79,0-1.58-.474-1.58-2.369,0-1.737.79-2.29,1.737-2.29a3.016,3.016,0,0,1,1.264.474v3.554A2.385,2.385,0,0,1,10.875,53.44Z" transform="translate(-2.819 -44.673)" fill="#000425"/>
              <path id="Trazado_5423" data-name="Trazado 5423" d="M18.2,52.975c0-1.422,1.185-2.132,2.764-2.132A7.083,7.083,0,0,1,22.386,51V50.29c0-.711-.395-1.027-1.185-1.027-1.106,0-1.422.316-1.58.632h-.869V48.553a.077.077,0,0,1,.079-.079A6.364,6.364,0,0,1,21.675,48c1.816,0,2.764.553,2.764,2.132v3.633c0,.079,0,.079.079.079h.632V54.95H22.939a.373.373,0,0,1-.395-.395V54.16a2.33,2.33,0,0,1-1.974.869C19.148,55.029,18.2,54.318,18.2,52.975Zm4.186.395V52.028a4,4,0,0,0-1.027-.158c-.79,0-1.264.316-1.264,1.027s.395,1.027,1.106,1.027A1.68,1.68,0,0,0,22.386,53.37Z" transform="translate(-5.09 -45.157)" fill="#000425"/>
              <path id="Trazado_5424" data-name="Trazado 5424" d="M27.679,47.6h.711V45.7h1.9v1.9h1.422V48.78H30.285v4.581a.077.077,0,0,0,.079.079h1.343v1.106h-3a.423.423,0,0,1-.395-.395V48.78H27.6V47.6Z" transform="translate(-7.066 -44.673)" fill="#000425"/>
            </g>
          </g>
        </g>
        <g id="Grupo_10257" data-name="Grupo 10257">
          <path id="Trazado_5425" data-name="Trazado 5425" d="M9.4,0A3.673,3.673,0,0,0,5.607,3.4h0a.887.887,0,0,1-.79.948h0A3.512,3.512,0,0,0,1.974,7.661a2.523,2.523,0,0,0,.237,1.106h0c0,.079.079.158.079.237a.845.845,0,0,1-.316.948H1.9a.077.077,0,0,0-.079.079h0A3.249,3.249,0,0,0,0,12.952a3.3,3.3,0,0,0,.553,1.816h0s.632.79.237,1.422c-.079.079-.079.158-.158.158h0A3.914,3.914,0,0,0,0,18.4a3.333,3.333,0,0,0,1.264,2.606h0a1.227,1.227,0,0,1,.316,1.264h0a3.577,3.577,0,0,0-.237,1.264A3.687,3.687,0,0,0,4.9,27.01H4.818a1.052,1.052,0,0,1,.869.869h0a3.713,3.713,0,0,0,3.791,2.843A3.667,3.667,0,0,0,13.268,27.4h0V17.375a.17.17,0,0,0-.158-.158c-.632.079-3.317.474-3.475.553-.158,0-.158-.079-.158-.158S13.268,3.475,13.268,3.475A3.707,3.707,0,0,0,9.4,0Z" fill="#000425"/>
          <path id="Trazado_5426" data-name="Trazado 5426" d="M30.436,14.847h0a3.073,3.073,0,0,0,.553-1.816,3.461,3.461,0,0,0-1.816-3h0a.077.077,0,0,1-.079-.079h-.079a.715.715,0,0,1-.316-.869c0-.079.079-.158.079-.237h0a2.523,2.523,0,0,0,.237-1.106,3.512,3.512,0,0,0-2.843-3.317h0a.887.887,0,0,1-.79-.948h0A3.584,3.584,0,0,0,21.591,0,3.634,3.634,0,0,0,17.8,3.475V13.5a.17.17,0,0,0,.158.158c.079,0,2.843-.474,3.475-.553.158,0,.158.079.158.158S17.8,27.4,17.8,27.4h0a3.667,3.667,0,0,0,3.791,3.317,3.793,3.793,0,0,0,3.791-2.843h0a1.052,1.052,0,0,1,.869-.869h-.079a3.687,3.687,0,0,0,3.554-3.475,3.274,3.274,0,0,0-.237-1.264h0a1.142,1.142,0,0,1,.316-1.264h0A3.333,3.333,0,0,0,31.068,18.4a3.37,3.37,0,0,0-.79-2.132C29.8,15.637,30.436,14.847,30.436,14.847Z" transform="translate(-3.742)" fill="#000425"/>
        </g>
      </g>
    </g>
  </g>
</svg>
