<svg xmlns="http://www.w3.org/2000/svg" width="27.416" height="25.662" viewBox="0 0 27.416 25.662">
  <g id="Grupo_18179" data-name="Grupo 18179" transform="translate(6659.591 1875.662)">
    <path id="cart001_-_E0BD" data-name="cart001 - E0BD" d="M-14.567-47.28H-18.15v.932h2.9l3.635,15.736a2.046,2.046,0,0,0-1.331,1.936,1.992,1.992,0,0,0,1.928,2.043,2,2,0,0,0,1.945-2.043,2.135,2.135,0,0,0-.307-1.093h5a2.135,2.135,0,0,0-.307,1.093,2,2,0,0,0,1.945,2.043A1.992,1.992,0,0,0-.813-28.676,1.988,1.988,0,0,0-2.741-30.7h-7.986l-.478-2.1H-.472L2.5-41.724H-13.27Zm15.8,6.488L-1.1-33.73H-11.427l-1.638-7.062ZM-9.959-28.676a1.091,1.091,0,0,1-1.058,1.111,1.077,1.077,0,0,1-1.041-1.111,1.061,1.061,0,0,1,1.041-1.093A1.075,1.075,0,0,1-9.959-28.676Zm8.259,0a1.077,1.077,0,0,1-1.041,1.111A1.091,1.091,0,0,1-3.8-28.676a1.075,1.075,0,0,1,1.058-1.093A1.061,1.061,0,0,1-1.7-28.676Z" transform="translate(-6641.441 -1823.367)" fill="#fff"/>
    <circle id="Elipse_218" data-name="Elipse 218" cx="8.018" cy="8.018" r="8.018" transform="translate(-6648.211 -1875.662)" fill="#5640ff"/>
    <text id="_3" data-name="3" transform="translate(-6640.197 -1864.656)" fill="#fff" font-size="8" font-family="Montserrat-Bold, Montserrat" font-weight="700"><tspan x="-2.364" y="0">3</tspan></text>
  </g>
</svg>
