<svg xmlns="http://www.w3.org/2000/svg" width="29.966" height="30" viewBox="0 0 29.966 30">
  <path id="Trazado_5404" data-name="Trazado 5404" d="M0-84.2H0v22.53L7.813-54.2H22.145l1.078-1.034-2.185-2.525-.225.225H9.146L3.323-63.092v-17.78H26.636v17.78l-.412.39L28.4-60.177l1.564-1.491V-84.2Zm6.653,6.661h0v12.46l4.416,4.211h7.282l-2.859-3.327.015-.008H12.4L9.984-66.509V-74.2h9.991v4.256l3.33,3.859V-77.538Zm6.661,6.668h0v3.334h1.819L26.636-54.2h3.33v-3.334H28.148l-11.5-13.337Zm0,0" transform="translate(0 84.198)" fill="#fff"/>
</svg>
