<svg id="Grupo_18370" data-name="Grupo 18370" xmlns="http://www.w3.org/2000/svg" width="55.565" height="58.25" viewBox="0 0 55.565 58.25">
  <g id="CNvS4V.tif" transform="translate(0 0)">
    <g id="Grupo_18369" data-name="Grupo 18369">
      <path id="Trazado_16553" data-name="Trazado 16553" d="M187.713,294a69.621,69.621,0,0,1,2.824-19.883c1.693-5.267,3.475-6.337,8.87-5.454,5.714.936,10.963,3.257,16.079,5.845a101.341,101.341,0,0,1,19.621,12.671,36.833,36.833,0,0,1,6.758,7.033c1.89,2.718,1.9,4.193-.091,6.776a45.673,45.673,0,0,1-10.654,9.426c-8.8,6.066-18,11.351-28.168,14.748a32.767,32.767,0,0,1-5.553,1.348c-3.24.483-4.8-.391-6.086-3.435a37.618,37.618,0,0,1-2.367-9.032A121.928,121.928,0,0,1,187.713,294Z" transform="translate(-187.71 -268.386)" fill="#fecb00"/>
    </g>
  </g>
  <path id="Trazado_16554" data-name="Trazado 16554" d="M213.468,351.192q1.267-6.749,2.877-13.427a1.96,1.96,0,0,1,2.129-1.493c1.356-.033,2.7-.131,4.056-.085,1.142.039,2.285.041,3.428.038.807,0,2.023-.2,2.338.8a8.333,8.333,0,0,1-.072,2.577c-.007.319.238.34.46.174.718-.534,1.343-1.218,2.019-1.806q1.092-.95,2.183-1.9c1.6-1.4,3.216-2.793,4.814-4.2a.657.657,0,0,0,.194-.232.526.526,0,0,0-.1-.478c-.927-1.338-2.038-2.544-3.055-3.814-1.059-1.27-2.059-2.591-3.1-3.877-.171-.211-.339-.423-.517-.627-.068-.079-.23-.331-.322-.275-.107.065-.117.338-.143.446-.18.732-.4,1.455-.6,2.182-.147.529-.667.574-1.147.574H224.1a45.422,45.422,0,0,1-4.652-.038.613.613,0,0,1-.457-.188.62.62,0,0,1-.012-.526c.263-.921.588-1.824.834-2.751a2.64,2.64,0,0,1,3.1-2.234c4.234.165,8.485.171,12.727.171a11.25,11.25,0,0,1,6.277,1.892c3.157,2.329,3.813,6.6,3.074,10.233a13.075,13.075,0,0,1-7.053,9.057,15.542,15.542,0,0,1-4.991,1.5,36.794,36.794,0,0,1-4.719.281c-1.5,0-3.005-.128-4.5-.222a1.678,1.678,0,0,0-.707.057c-.51.2-.7.808-.817,1.342l-1.983,8.792a.835.835,0,0,1-.225.479.821.821,0,0,1-.458.141,24.52,24.52,0,0,1-5.435-.082.8.8,0,0,1-.887-1.09Q213.338,351.887,213.468,351.192Z" transform="translate(-206.531 -306.217)"/>
</svg>
