<svg id="Grupo_3794" data-name="Grupo 3794" xmlns="http://www.w3.org/2000/svg" width="16.157" height="11.376" viewBox="0 0 16.157 11.376">
  <path id="Trazado_2102" data-name="Trazado 2102" d="M159.035,155.875a3.16,3.16,0,1,0,3.16,3.16A3.163,3.163,0,0,0,159.035,155.875Zm0,5.057a1.9,1.9,0,1,1,1.9-1.9A1.9,1.9,0,0,1,159.035,160.932Z" transform="translate(-150.956 -153.346)" fill="#c4c4c4"/>
  <path id="Trazado_2103" data-name="Trazado 2103" d="M16.1,81.168a11.126,11.126,0,0,0-1.948-2.7,8.368,8.368,0,0,0-6.07-2.719,8.368,8.368,0,0,0-6.069,2.719,11.126,11.126,0,0,0-1.948,2.7.631.631,0,0,0,0,.541,11.126,11.126,0,0,0,1.948,2.7,8.368,8.368,0,0,0,6.069,2.719,8.368,8.368,0,0,0,6.069-2.719,11.125,11.125,0,0,0,1.948-2.7A.631.631,0,0,0,16.1,81.168Zm-2.88,2.387a7.056,7.056,0,0,1-5.138,2.31,7.056,7.056,0,0,1-5.138-2.31,10.441,10.441,0,0,1-1.6-2.116,10.437,10.437,0,0,1,1.6-2.116,7.056,7.056,0,0,1,5.138-2.31,7.056,7.056,0,0,1,5.138,2.31,10.441,10.441,0,0,1,1.6,2.116A10.439,10.439,0,0,1,13.217,83.554Z" transform="translate(0 -75.75)" fill="#c4c4c4"/>
</svg>
